<svg xmlns="http://www.w3.org/2000/svg" xml:space="preserve" style="fill-rule:evenodd;clip-rule:evenodd;stroke-linejoin:round;stroke-miterlimit:2" viewBox="0 0 260 260"><path d="M0 0h259.2v259.2H0z" style="fill:none"/><clipPath id="a"><path d="M0 0h259.2v259.2H0z"/></clipPath><g clip-path="url(#a)"><circle cx="129.6" cy="129.6" r="129.6" style="fill:#fff"/><path d="M105.803 256.765a93.12 93.12 0 0 1-10.419.583c-50.905 0-92.234-41.329-92.234-92.234 0-35.814 20.456-66.888 50.312-82.164l8.295 109.765c0 13.107 14.728 15.996 18.9 20.422 1.998 2.12 2.747 6.131 6.131 6.131h21.698l-2.684 37.497Zm68.865-44.522a92.802 92.802 0 0 1-29.952 30.799l-1.702-23.775h24.523c3.384 0 4.133-4.011 6.131-6.131.286-.304.622-.6 1-.893ZM65.543 77.91c4.824-1.667 9.575-1.159 14.724-2.01 1.229 1.005 1.76.748 1.76 2.459l6.681 104.949a5.482 5.482 0 0 1-5.479 5.479h-4.164a5.482 5.482 0 0 1-5.479-5.479L65.525 78.359c0-.151.006-.301.018-.449Zm37.415-3.448c4.15.338 8.222.951 12.199 1.821.718.927.89.814.89 2.076l2.523 104.949a5.482 5.482 0 0 1-5.479 5.479h-4.164a5.482 5.482 0 0 1-5.479-5.479L99.545 78.359c0-2.389 1.278-3.148 3.412-3.897Zm32.422 7.408c5.886 2.818 10.918 6.242 16.034 10.191l-3.36 91.248a5.482 5.482 0 0 1-5.479 5.479h-4.164a5.482 5.482 0 0 1-5.479-5.479l2.447-101.438Zm32.054 25.682a92.143 92.143 0 0 1 14.462 25.533l-3.98 50.224a5.482 5.482 0 0 1-5.479 5.479h-4.164a5.482 5.482 0 0 1-5.479-5.479l4.639-75.757Z" style="fill:#26547c"/><path d="M105.871 61.541c7.459-34.116 37.874-59.689 74.214-59.689 41.926 0 75.965 34.039 75.965 75.965 0 36.467-25.751 66.966-60.045 74.291l7.147-84.436a6.134 6.134 0 0 0-6.131-6.131h-91.15Zm74.384 92.241h-.17a76.18 76.18 0 0 1-15.387-1.562l4.777-73.86c0-3.024 2.2-3.184 5.224-3.184h6.054c3.024 0 5.479.16 5.479 3.184l-5.976 75.422Zm-30.778-6.427a75.993 75.993 0 0 1-15.569-9.231l1.547-59.763c0-3.024 2.2-3.439 5.224-3.439h6.054c3.024 0 5.224.415 5.224 3.439l-2.479 68.995Zm-32.268-26.916c-8.261-12.156-13.09-26.829-13.09-42.621 0-1.651.053.025.157-1.6.162-.014.326-.022.491-.022h6.054c3.024 0 5.224-.86 5.224 2.164l1.164 42.078Z" style="fill:#2faca7"/><path d="M59.696 165.436C27.18 156.964 3.15 127.378 3.15 92.225c0-41.751 33.897-75.648 75.648-75.648 30.83 0 57.378 18.483 69.156 44.963H58.439a6.134 6.134 0 0 0-6.131 6.131l7.388 97.764Zm91.036-49.756a75.638 75.638 0 0 1-16.955 28.482l1.677-65.803c0-3.024 2.2-2.674 5.224-2.674h6.054c3.024 0 5.224-.35 5.224 2.674l-1.224 37.321Zm-32.734 41.242a75.297 75.297 0 0 1-15.315 7.096L99.544 78.36c0-3.024 2.2-2.419 5.224-2.419h6.054c3.024 0 5.224-.605 5.224 2.419l1.953 78.562ZM87.729 167.35a76.605 76.605 0 0 1-15.389.251L65.524 78.36c0-3.024 2.2-1.654 5.224-1.654h6.054c3.024 0 5.224-1.37 5.224 1.654l5.704 88.99Z" style="fill:#26547c"/><path d="M199.112 115.4c20.8 12.158 34.785 34.728 34.785 60.538 0 38.673-31.397 70.07-70.07 70.07a70.024 70.024 0 0 1-19.088-2.636l-1.726-24.104h24.523c3.384 0 4.133-4.011 6.131-6.131 4.172-4.425 18.9-7.314 18.9-20.422l6.544-77.315Zm-97.252 27.822a70.424 70.424 0 0 1 15.419-19.64l1.291 59.726a5.482 5.482 0 0 1-5.479 5.479h-4.164a5.482 5.482 0 0 1-5.479-5.479l-1.588-40.086Zm32.607-30.915a69.534 69.534 0 0 1 16.609-5.279l-3.022 76.28a5.482 5.482 0 0 1-5.479 5.479h-4.164a5.482 5.482 0 0 1-5.479-5.479l1.534-71.001Zm33.064-6.343a69.81 69.81 0 0 1 16.292 2.803l-5.907 74.541a5.482 5.482 0 0 1-5.479 5.479h-4.164a5.482 5.482 0 0 1-5.479-5.479l4.736-77.344Z" style="fill:#2faca7"/><path d="m192.582 192.542-.015 4.763c0 13.107-14.728 15.996-18.9 20.422-1.998 2.12-2.747 6.131-6.131 6.131h-24.194l-.329-4.59h24.523c3.384 0 4.133-4.011 6.131-6.131 4.172-4.425 18.9-7.314 18.9-20.422l.015-.173Zm-84.424 31.316H86.789c-3.384 0-4.133-4.011-6.131-6.131-4.172-4.425-18.9-7.314-18.9-20.422l.022-3.717c.638 12.366 14.8 15.223 18.878 19.549 1.998 2.12 2.747 6.131 6.131 6.131h21.698l-.329 4.59Zm-19.645-39.105L82.28 82.949a5.482 5.482 0 0 0-5.479-5.479h-6.054a5.485 5.485 0 0 0-5.242 3.881l-.237-2.992a5.482 5.482 0 0 1 5.479-5.479h6.054a5.482 5.482 0 0 1 5.479 5.479l6.426 104.949c0 .5-.067.984-.193 1.444Zm29.976-.512L116.3 82.95a5.482 5.482 0 0 0-5.479-5.479h-6.054a5.484 5.484 0 0 0-5.345 4.27l-.134-3.381a5.482 5.482 0 0 1 5.479-5.479h6.054a5.482 5.482 0 0 1 5.479 5.479l2.268 104.949c0 .318-.027.629-.079.932Zm33.587-102.5a5.484 5.484 0 0 0-5.345-4.27h-6.054a5.482 5.482 0 0 0-5.479 5.479l-2.189 101.291a5.503 5.503 0 0 1-.079-.932l2.268-104.949a5.482 5.482 0 0 1 5.479-5.479h6.054a5.482 5.482 0 0 1 5.479 5.479l-.134 3.381Zm33.917-.389a5.486 5.486 0 0 0-5.242-3.881h-6.054a5.482 5.482 0 0 0-5.479 5.479l-6.233 101.804a5.458 5.458 0 0 1-.193-1.444l6.426-104.949a5.482 5.482 0 0 1 5.479-5.479h6.054a5.482 5.482 0 0 1 5.479 5.479l-.237 2.992Z" style="fill:#ccc"/></g></svg>